<svg xmlns="http://www.w3.org/2000/svg" viewBox="0 0 512 512" style="enable-background:new 0 0 512 512" xml:space="preserve"><circle style="fill:#386895" cx="256" cy="256" r="256"/><path style="fill:#273b7a" d="m171.456 59.092 151.357 151.357-51.872 24.864h-76.714z"/><path style="fill:#273b7a" d="M505.163 197.032 365.897 57.775c-27.576 86.404-47.488 178.362-121.965 239.599-29.306 22.411-60.337 41.374-77.576 72.404-4.948 8.906-11.638 15.996-18.037 23.45l118.458 118.531C403.161 506.108 512 393.773 512 256a256.74 256.74 0 0 0-6.837-58.968z"/><path style="fill:#e8887c" d="M312.189 263.689c-24.083-5.399-35.659-45.216-25.855-88.936 6.778-30.229 39.722-79.498 59.408-107.027 7.639-10.681 17.442-8.483 19.789 4.436 6.046 33.297 14.796 91.913 8.016 122.142-9.803 43.719-37.275 74.784-61.358 69.385z"/><path style="fill:#e8e8e8" d="M317.74 271.329c-2.37 0-4.737-.257-7.089-.784-14.258-3.196-25.214-15.624-30.844-34.992-5.208-17.918-5.325-40.055-.328-62.336 6.721-29.986 36.636-76.138 60.547-109.577 5.365-7.501 12.348-10.928 19.134-9.4 6.794 1.524 11.636 7.599 13.283 16.668 7.344 40.445 14.686 94.949 7.959 124.933-9.916 44.223-36.498 75.488-62.662 75.488zm-4.015-14.496c19.927 4.443 44.179-24.876 52.967-64.067 6.537-29.146-2.253-87.287-8.075-119.349-.765-4.218-2.269-5.408-2.534-5.467-.241-.071-2.127.367-4.627 3.863-18.956 26.508-51.733 75.33-58.268 104.476-4.487 20.006-4.448 39.66.11 55.341 4.138 14.227 11.392 23.179 20.427 25.203z"/><path style="fill:#ffad9e" d="M203.276 263.689c24.083-5.399 35.659-45.216 25.855-88.936-6.778-30.229-39.722-79.498-59.408-107.027-7.639-10.681-17.442-8.483-19.789 4.436-6.046 33.297-14.796 91.913-8.016 122.142 9.803 43.719 37.275 74.784 61.358 69.385z"/><path style="fill:#fff" d="M197.723 271.329c-26.162 0-52.745-31.261-62.662-75.488-6.725-29.984.615-84.489 7.959-124.935 1.646-9.068 6.489-15.143 13.283-16.667 6.789-1.527 13.769 1.903 19.134 9.399 23.911 33.439 53.826 79.593 60.547 109.577 4.996 22.281 4.88 44.42-.328 62.336-5.63 19.368-16.584 31.794-30.844 34.992a32.33 32.33 0 0 1-7.089.786zM159.435 67.944a.257.257 0 0 0-.055.005c-.264.059-1.767 1.248-2.534 5.467-5.822 32.065-14.612 90.203-8.075 119.349 8.79 39.193 33.061 68.52 52.967 64.067 9.035-2.026 16.289-10.976 20.425-25.203 4.56-15.681 4.598-35.333.11-55.341-6.535-29.146-39.312-77.969-58.268-104.477-2.36-3.303-4.161-3.867-4.57-3.867z"/><path style="fill:#fff" d="M400.808 311.101c0 67.836-64.833 122.828-144.808 122.828s-144.808-54.993-144.808-122.828S176.025 211.113 256 211.113s144.808 32.153 144.808 99.988z"/><path style="fill:#e8e8e8" d="M400.808 311.101c0-67.755-64.678-99.907-144.52-99.985v222.808c79.843-.132 144.52-55.068 144.52-122.823z"/><circle style="fill:#1e262b" cx="186.044" cy="350.108" r="8.189"/><circle style="fill:#1e262b" cx="325.956" cy="350.108" r="8.189"/><path style="fill:#ff6262" d="M269.36 363.701h-26.72a6.896 6.896 0 0 0 0 13.792h6.465v29.737a6.897 6.897 0 0 0 13.792 0v-29.737h6.465a6.896 6.896 0 1 0-.002-13.792z"/><path style="fill:#f24c4c" d="M269.36 363.701h-13.072v50.395c3.672-.153 6.608-3.156 6.608-6.866v-29.737h6.465a6.896 6.896 0 1 0-.001-13.792z"/></svg>